<svg xmlns="http://www.w3.org/2000/svg" version="1.1" width="256px" height="256px" style="shape-rendering:geometricPrecision; text-rendering:geometricPrecision; image-rendering:optimizeQuality; fill-rule:evenodd; clip-rule:evenodd" xmlns:xlink="http://www.w3.org/1999/xlink">
<g><path style="opacity:1" fill="#21de29" d="M 39.5,-0.5 C 98.5,-0.5 157.5,-0.5 216.5,-0.5C 236.356,4.69077 249.356,17.0241 255.5,36.5C 255.5,97.5 255.5,158.5 255.5,219.5C 249.807,237.86 237.807,249.86 219.5,255.5C 158.167,255.5 96.8333,255.5 35.5,255.5C 17.3978,249.065 5.39778,236.732 -0.5,218.5C -0.5,158.5 -0.5,98.5 -0.5,38.5C 4.93568,17.3976 18.269,4.39763 39.5,-0.5 Z M 98.5,130.5 C 98.5,131.833 99.1667,132.5 100.5,132.5C 110.869,128.528 121.203,128.861 131.5,133.5C 139.969,128.267 148.969,124.1 158.5,121C 185.513,116.498 202.18,127.498 208.5,154C 207.998,181.186 193.998,196.519 166.5,200C 161.331,200.729 156.331,200.062 151.5,198C 147.609,195.266 143.609,192.766 139.5,190.5C 109.555,199.453 82.2217,194.286 57.5,175C 53.1667,172 49.5,168.333 46.5,164C 48.6684,132.836 60.5017,106.003 82,83.5C 84.1103,74.2551 88.9436,66.9217 96.5,61.5C 97.7095,61.0679 98.7095,60.4013 99.5,59.5C 111.301,54.127 122.968,54.2936 134.5,60C 142.641,66.7599 145.808,75.2599 144,85.5C 131.682,93.3182 118.849,94.3182 105.5,88.5C 104.522,88.9767 103.689,89.6433 103,90.5C 101.056,94.7225 99.3892,99.0558 98,103.5C 97.6251,112.505 97.7918,121.505 98.5,130.5 Z"/></g>
<g><path style="opacity:0.694" fill="#88c99c" d="M 99.5,59.5 C 98.7095,60.4013 97.7095,61.0679 96.5,61.5C 96.8212,59.9519 97.8212,59.2852 99.5,59.5 Z"/></g>
<g><path style="opacity:0.016" fill="#b2bcc8" d="M 98.5,130.5 C 99.5,130.833 100.167,131.5 100.5,132.5C 99.1667,132.5 98.5,131.833 98.5,130.5 Z"/></g>
</svg>
